<mxfile host="65bd71144e">
    <diagram id="RvG" name="Grid Layout Horizontal">
        <mxGraphModel dx="662" dy="583" grid="0" gridSize="10" guides="1" tooltips="1" connect="1" arrows="1" fold="1" page="1" pageScale="1" pageWidth="1169" pageHeight="827" background="#FFFACD" math="0" shadow="0">
            <root>
                <mxCell id="RvG-A"/>
                <mxCell id="RvG-B" parent="RvG-A"/>
                <mxCell id="QXWACvS6CMH1bOgkagX_-0" value="The quick brown fox" style="rounded=1;whiteSpace=wrap;html=1;strokeWidth=4;fillWeight=3;hachureGap=3;hachureAngle=45;fillColor=#1ba1e2;sketch=1;" parent="RvG-B" vertex="1">
                    <mxGeometry x="36" y="287" width="464" height="275" as="geometry"/>
                </mxCell>
                <mxCell id="QXWACvS6CMH1bOgkagX_-1" value="" style="ellipse;whiteSpace=wrap;html=1;strokeWidth=2;fillWeight=2;hachureGap=8;fillColor=#999000;fillStyle=hatchure;sketch=1;" parent="RvG-B" vertex="1">
                    <mxGeometry x="360" y="202" width="120" height="60" as="geometry"/>
                </mxCell>
                <mxCell id="QXWACvS6CMH1bOgkagX_-2" value="" style="ellipse;whiteSpace=wrap;html=1;strokeWidth=2;fillWeight=2;hachureGap=3;fillColor=#990000;fillStyle=zigzag;sketch=1;" parent="RvG-B" vertex="1">
                    <mxGeometry x="202" y="205" width="120" height="60" as="geometry"/>
                </mxCell>
                <mxCell id="QXWACvS6CMH1bOgkagX_-3" value="" style="ellipse;whiteSpace=wrap;html=1;strokeWidth=2;fillWeight=2;hachureGap=4;fillColor=#990000;fillStyle=dashed;sketch=1;" parent="RvG-B" vertex="1">
                    <mxGeometry x="50" y="202" width="120" height="60" as="geometry"/>
                </mxCell>
                <mxCell id="QXWACvS6CMH1bOgkagX_-4" value="" style="ellipse;whiteSpace=wrap;html=1;strokeWidth=2;fillWeight=2;hachureGap=5;fillColor=#990000;fillStyle=zigzag-line;sketch=1;" parent="RvG-B" vertex="1">
                    <mxGeometry x="494" y="88" width="120" height="60" as="geometry"/>
                </mxCell>
                <mxCell id="QXWACvS6CMH1bOgkagX_-5" value="" style="ellipse;whiteSpace=wrap;html=1;strokeWidth=2;fillWeight=2;hachureGap=6;fillColor=#990000;fillStyle=dots;sketch=1;" parent="RvG-B" vertex="1">
                    <mxGeometry x="343" y="86" width="120" height="60" as="geometry"/>
                </mxCell>
                <mxCell id="QXWACvS6CMH1bOgkagX_-6" value="" style="ellipse;whiteSpace=wrap;html=1;strokeWidth=2;fillWeight=2;hachureGap=3;fillColor=#990000;fillStyle=dots;sketch=1;" parent="RvG-B" vertex="1">
                    <mxGeometry x="194" y="95" width="120" height="60" as="geometry"/>
                </mxCell>
                <mxCell id="QXWACvS6CMH1bOgkagX_-7" value="" style="ellipse;whiteSpace=wrap;html=1;strokeWidth=2;fillWeight=2;hachureGap=8;fillColor=#990000;fillStyle=dots;sketch=1;" parent="RvG-B" vertex="1">
                    <mxGeometry x="48" y="95" width="120" height="60" as="geometry"/>
                </mxCell>
                <mxCell id="0" value="" style="rhombus;whiteSpace=wrap;html=1;strokeWidth=2;fillWeight=-1;hachureGap=8;fillStyle=cross-hatch;fillColor=#006600;sketch=1;" vertex="1" parent="RvG-B">
                    <mxGeometry x="506" y="170" width="120" height="60" as="geometry"/>
                </mxCell>
            </root>
        </mxGraphModel>
    </diagram>
</mxfile>